SplineFontDB: 3.0
FontName: Renner-it-BlackItalic
FullName: Renner* Black Italic
FamilyName: Renner* Black
Weight: Black
Copyright: This typeface is licensed under the SIL open font license.
UComments: "2016-6-10: Created with FontForge (http://fontforge.org)"
Version: 002.100
ItalicAngle: -10
UnderlinePosition: -100
UnderlineWidth: 50
Ascent: 800
Descent: 200
InvalidEm: 0
LayerCount: 2
Layer: 0 0 "Back" 1
Layer: 1 0 "Fore" 0
XUID: [1021 31 -699969567 16188444]
FSType: 0
OS2Version: 0
OS2_WeightWidthSlopeOnly: 0
OS2_UseTypoMetrics: 1
CreationTime: 1465610489
ModificationTime: 1504298815
PfmFamily: 33
TTFWeight: 900
TTFWidth: 5
LineGap: 100
VLineGap: 0
OS2TypoAscent: 800
OS2TypoAOffset: 0
OS2TypoDescent: -200
OS2TypoDOffset: 0
OS2TypoLinegap: 100
OS2WinAscent: 900
OS2WinAOffset: 0
OS2WinDescent: 300
OS2WinDOffset: 0
HheadAscent: 900
HheadAOffset: 0
HheadDescent: -200
HheadDOffset: 0
OS2CapHeight: 700
OS2XHeight: 460
OS2Vendor: 'PfEd'
Lookup: 258 0 0 "Lets get our kern on" { "kernin like nobodys business" [150,0,4] } ['kern' ('DFLT' <'dflt' > 'latn' <'dflt' > ) ]
MarkAttachClasses: 1
DEI: 91125
KernClass2: 15 14 "kernin like nobodys business"
 3 A L
 7 D G O Q
 5 F P Y
 5 K X Z
 1 T
 1 U
 3 V W
 9 a c g q s
 7 b e o p
 7 d i j l
 3 f t
 5 h m n
 5 k x z
 7 r v w y
 1 A
 7 C G O Q
 1 T
 1 U
 5 V W Y
 3 X Z
 9 m n p r s
 11 b h i j k l
 13 c d e g o q a
 3 f t
 7 u v w y
 3 x z
 12 period comma

StartChar: H
Encoding: 72 72 0
Width: 790
VWidth: 0
Flags: HMW
LayerCount: 2
Fore
SplineSet
155 275 m 5
 186 450 l 1
 746 450 l 1
 715 275 l 5
 155 275 l 5
653 700 m 1
 853 700 l 1
 730 0 l 1
 530 0 l 1
 653 700 l 1
183 700 m 1
 383 700 l 1
 260 0 l 1
 60 0 l 1
 183 700 l 1
EndSplineSet
EndChar

StartChar: O
Encoding: 79 79 1
Width: 869
VWidth: 0
Flags: HMW
LayerCount: 2
Fore
SplineSet
301.235351562 306.3125 m 4
 301.235351562 208.611328125 366.6796875 148 461.278320312 148 c 4
 578.963867188 148 693.487304688 245.381835938 693.487304688 395.28515625 c 4
 693.487304688 492.048828125 630.716796875 552 532.278320312 552 c 4
 415.565429688 552 301.235351562 455.245117188 301.235351562 306.3125 c 4
554.278320312 730 m 4
 763.26953125 730 909.38671875 602.671875 909.38671875 417.646484375 c 4
 909.38671875 113.21484375 674.337890625 -30 440.278320312 -30 c 4
 227.430664062 -30 85 96.7109375 85 280.670898438 c 4
 85 586.083007812 328.66796875 730 554.278320312 730 c 4
EndSplineSet
EndChar

StartChar: I
Encoding: 73 73 2
Width: 325
VWidth: 0
Flags: HMW
LayerCount: 2
Fore
SplineSet
183 700 m 1
 388 700 l 5
 265 0 l 5
 60 0 l 1
 183 700 l 1
EndSplineSet
EndChar

StartChar: C
Encoding: 67 67 3
Width: 730
VWidth: 0
Flags: HMW
LayerCount: 2
Fore
SplineSet
294.960128116 306.848426585 m 0
 294.960128116 206.352972577 366.832998505 152 462 152 c 0
 561 152 661 201 716 263 c 1
 677 37 l 1
 615 -1 542 -30 440 -30 c 0
 224.2421875 -30 85.2763671875 111.9765625 85.2763671875 295.086914062 c 0
 85.2763671875 559.615234375 304.114257812 730 554 730 c 4
 656 730 739 701 787 663 c 1
 747 437 l 1
 714 499 631 548 532 548 c 0
 415.563225789 548 294.960128116 461.090892825 294.960128116 306.848426585 c 0
EndSplineSet
EndChar

StartChar: E
Encoding: 69 69 4
Width: 615
VWidth: 0
Flags: HMW
LayerCount: 2
Fore
SplineSet
212 0 m 1
 241 165 l 1
 594 165 l 1
 565 0 l 1
 212 0 l 1
306 535 m 1
 335 700 l 1
 688 700 l 1
 659 535 l 1
 306 535 l 1
262 285 m 1
 289 435 l 1
 622 435 l 1
 595 285 l 1
 262 285 l 1
183 700 m 1
 373 700 l 1
 250 0 l 1
 60 0 l 1
 183 700 l 1
EndSplineSet
EndChar

StartChar: F
Encoding: 70 70 6
Width: 560
VWidth: 0
Flags: HMW
LayerCount: 2
Fore
SplineSet
305 525 m 5
 335 700 l 1
 648 700 l 1
 618 525 l 5
 305 525 l 5
257 255 m 5
 285 415 l 5
 588 415 l 5
 560 255 l 5
 257 255 l 5
183 700 m 1
 373 700 l 1
 250 0 l 1
 60 0 l 1
 183 700 l 1
EndSplineSet
EndChar

StartChar: G
Encoding: 71 71 7
Width: 852
VWidth: 0
Flags: HMW
LayerCount: 2
Fore
SplineSet
885 360 m 1
 705 360 l 1
 713 400 l 1
 893 400 l 1
 885 360 l 1
514 250 m 1
 541 400 l 1
 713 400 l 1
 696 250 l 1
 514 250 l 1
885 360 m 1
 845 131 689 -30 455 -30 c 0
 246.528320312 -30 85.521484375 109.850585938 85.521484375 297.931640625 c 4
 85.521484375 545.793945312 310.669921875 730 549 730 c 5
 538 555 l 1
 422.194395545 555 288.349866187 467.894216767 288.349866187 309.245237838 c 0
 288.349866187 202.35536924 369.607210763 145 466 145 c 0
 624 145 672 227 705 360 c 1
 885 360 l 1
700 474 m 1
 676 528 625 555 538 555 c 1
 549 730 l 5
 708 730 821 681 870 564 c 1
 700 474 l 1
EndSplineSet
EndChar

StartChar: T
Encoding: 84 84 8
Width: 580
VWidth: 0
Flags: HMW
LayerCount: 2
Fore
SplineSet
103 525 m 1
 133 700 l 1
 693 700 l 1
 663 525 l 1
 103 525 l 1
313 700 m 1
 513 700 l 1
 390 0 l 1
 190 0 l 1
 313 700 l 1
EndSplineSet
EndChar

StartChar: L
Encoding: 76 76 9
Width: 535
VWidth: 0
Flags: HMW
LayerCount: 2
Fore
SplineSet
212 0 m 1
 241 165 l 5
 554 165 l 5
 525 0 l 1
 212 0 l 1
183 700 m 1
 373 700 l 1
 250 0 l 1
 60 0 l 1
 183 700 l 1
EndSplineSet
EndChar

StartChar: D
Encoding: 68 68 10
Width: 780
VWidth: 0
Flags: HMW
LayerCount: 2
Fore
SplineSet
212 0 m 5
 241 165 l 5
 374 165 l 5
 365 0 l 5
 212 0 l 5
306 535 m 5
 335 700 l 5
 448 700 l 5
 439 535 l 5
 306 535 l 5
183 700 m 5
 383 700 l 5
 260 0 l 5
 60 0 l 5
 183 700 l 5
374 165 m 5
 503.416795154 165 611.80523991 227.580643687 611.80523991 400.708914898 c 4
 611.80523991 503.195715834 541.683384468 535 439 535 c 5
 448 700 l 5
 678.310546875 700 814.461914062 570.30078125 814.461914062 409.452148438 c 4
 814.461914062 125.8125 617.243164062 0 365 0 c 5
 374 165 l 5
EndSplineSet
EndChar

StartChar: Q
Encoding: 81 81 11
Width: 948
VWidth: 0
Flags: HMW
LayerCount: 2
Fore
SplineSet
480 148 m 0
 600.045687629 148 708.234506652 224.958721567 708.234506652 377.469051268 c 0
 708.234506652 483.749980283 639.954336409 552 541 552 c 0
 424.455515386 552 309.975716029 455.371857487 309.975716029 306.610027904 c 0
 309.975716029 208.734246956 376.536947547 148 480 148 c 0
563 730 m 0
 772.836914062 730 918.552734375 601.758789062 918.552734375 412.256835938 c 0
 918.552734375 139.086914062 664.341796875 -30 439 -30 c 0
 245.08984375 -30 93.70703125 96.6240234375 93.70703125 290.43359375 c 0
 93.70703125 585.994140625 337.245117188 730 563 730 c 0
389 320 m 1
 624 320 l 1
 944 -20 l 1
 699 -20 l 1
 389 320 l 1
EndSplineSet
EndChar

StartChar: A
Encoding: 65 65 12
Width: 780
VWidth: 0
Flags: HMW
LayerCount: 2
Fore
SplineSet
225 100 m 1
 251 250 l 1
 621 250 l 1
 595 100 l 1
 225 100 l 1
436 485 m 5
 522 750 l 1
 785 0 l 1
 585 0 l 5
 436 485 l 5
522 750 m 1
 526 485 l 1
 205 0 l 1
 -5 0 l 1
 522 750 l 1
EndSplineSet
EndChar

StartChar: R
Encoding: 82 82 13
Width: 645
VWidth: 0
Flags: HMW
LayerCount: 2
Fore
SplineSet
396 230 m 5
 403 385 l 1
 475.947931879 385 521.794241159 414.042860548 521.794241159 483.380555982 c 0
 521.794241159 524.156019207 489.726666628 535 429 535 c 1
 438 700 l 1
 616.645507812 700 715.048828125 634.690429688 715.048828125 499.29296875 c 0
 715.048828125 330.484375 584.495117188 230 396 230 c 5
243 230 m 1
 270 385 l 1
 403 385 l 1
 396 230 l 5
 243 230 l 1
296 535 m 1
 325 700 l 1
 438 700 l 1
 429 535 l 1
 296 535 l 1
183 700 m 1
 363 700 l 1
 240 0 l 1
 60 0 l 1
 183 700 l 1
287 350 m 1
 482 350 l 1
 660 0 l 1
 465 0 l 1
 287 350 l 1
EndSplineSet
EndChar

StartChar: V
Encoding: 86 86 14
Width: 790
VWidth: 0
Flags: HMW
LayerCount: 2
Fore
SplineSet
473 215 m 1
 386 -50 l 1
 123 700 l 1
 323 700 l 1
 473 215 l 1
386 -50 m 1
 378 215 l 5
 698 700 l 5
 913 700 l 1
 386 -50 l 1
EndSplineSet
EndChar

StartChar: M
Encoding: 77 77 15
Width: 1040
VWidth: 0
Flags: HMW
LayerCount: 2
Fore
SplineSet
259 450 m 1
 293 755 l 1
 596 190 l 1
 531 -35 l 1
 259 450 l 1
293 755 m 1
 422 495 l 1
 245 0 l 1
 30 0 l 1
 293 755 l 1
802 495 m 5
 1013 755 l 1
 1010 0 l 1
 805 0 l 5
 802 495 l 5
1013 755 m 1
 959 420 l 1
 531 -35 l 1
 536 220 l 1
 1013 755 l 1
EndSplineSet
EndChar

StartChar: W
Encoding: 87 87 16
Width: 1110
VWidth: 0
Flags: HMW
LayerCount: 2
Fore
SplineSet
858 245 m 1
 780 -55 l 1
 605 435 l 1
 688 755 l 1
 858 245 l 1
780 -55 m 1
 752 210 l 1
 998 700 l 1
 1233 700 l 1
 780 -55 l 1
432 210 m 1
 310 -55 l 1
 123 700 l 1
 358 700 l 1
 432 210 l 1
310 -55 m 1
 328 225 l 5
 688 755 l 1
 665 435 l 1
 310 -55 l 1
EndSplineSet
EndChar

StartChar: N
Encoding: 78 78 17
Width: 785
VWidth: 0
Flags: HMW
LayerCount: 2
Fore
SplineSet
162 525 m 5
 190 735 l 1
 746 175 l 1
 719 -35 l 1
 162 525 l 5
658 700 m 1
 848 700 l 1
 719 -35 l 1
 559 135 l 1
 658 700 l 1
190 735 m 1
 350 565 l 1
 250 0 l 1
 60 0 l 1
 190 735 l 1
EndSplineSet
EndChar

StartChar: a
Encoding: 97 97 18
Width: 645
VWidth: 0
Flags: HMW
LayerCount: 2
Fore
SplineSet
483 460 m 5
 678 460 l 5
 595 0 l 1
 400 0 l 1
 483 460 l 5
318 480 m 0
 431.594726562 480 483.67578125 410.629882812 483.67578125 242.057617188 c 0
 483.67578125 139.272460938 370.28125 -20 249 -20 c 0
 137.599609375 -20 65.2919921875 41.376953125 65.2919921875 188.74609375 c 0
 65.2919921875 368.141601562 211.171875 480 318 480 c 0
275.442037723 213.021273415 m 0
 275.442037723 172.61381209 304.262512495 150 344 150 c 0
 387.26003885 150 442.618826202 180.773546691 442.618826202 247.323221483 c 0
 442.618826202 290.987908708 408.601583571 310 373 310 c 0
 324.517593178 310 275.442037723 274.678335099 275.442037723 213.021273415 c 0
EndSplineSet
EndChar

StartChar: X
Encoding: 88 88 19
Width: 735
VWidth: 0
Flags: HMW
LayerCount: 2
Fore
SplineSet
143 700 m 1
 353 700 l 5
 740 0 l 1
 530 0 l 1
 143 700 l 1
623 700 m 1
 848 700 l 1
 220 0 l 1
 -5 0 l 1
 623 700 l 1
EndSplineSet
EndChar

StartChar: K
Encoding: 75 75 20
Width: 771
VWidth: 0
Flags: HMW
LayerCount: 2
Fore
SplineSet
292 380 m 5
 528 380 l 1
 776 0 l 1
 540 0 l 5
 292 380 l 5
628 700 m 1
 884 700 l 1
 531 370 l 1
 275 370 l 1
 628 700 l 1
183 700 m 1
 383 700 l 1
 260 0 l 1
 60 0 l 1
 183 700 l 1
EndSplineSet
EndChar

StartChar: Y
Encoding: 89 89 21
Width: 675
VWidth: 0
Flags: HMW
LayerCount: 2
Fore
SplineSet
306 360 m 1
 491 360 l 1
 428 0 l 1
 243 0 l 1
 306 360 l 1
113 700 m 1
 308 700 l 1
 456 320 l 1
 297 240 l 1
 113 700 l 1
593 700 m 5
 808 700 l 1
 452 240 l 1
 301 320 l 5
 593 700 l 5
EndSplineSet
EndChar

StartChar: B
Encoding: 66 66 22
Width: 678
VWidth: 0
Flags: HMW
LayerCount: 2
Fore
SplineSet
394 335 m 1
 401 430 l 1
 453.095703125 430 495.069849708 456.216418162 495.069849708 502.06127061 c 0
 495.069849708 530.230168651 475.083997797 545 431 545 c 1
 448 700 l 1
 587.9609375 700 699.599299188 650.263220978 699.599299188 538.273515969 c 0
 699.599299188 395.317561895 562.606542085 335 394 335 c 1
375 0 m 1
 382 155 l 1
 435.06095161 155 489.512776187 175.605110549 489.512776187 242.846753856 c 0
 489.512776187 285.330756455 461.8828125 295 417 295 c 1
 416 400 l 1
 540.592773438 400 687.962890625 336.78125 687.962890625 214.530273438 c 0
 687.962890625 50.2802734375 541.939453125 0 375 0 c 1
212 0 m 1
 239 155 l 1
 382 155 l 1
 375 0 l 1
 212 0 l 1
308 545 m 1
 335 700 l 1
 448 700 l 1
 431 545 l 1
 308 545 l 1
264 295 m 1
 288 430 l 1
 421 430 l 1
 417 295 l 1
 264 295 l 1
183 700 m 1
 373 700 l 1
 250 0 l 1
 60 0 l 1
 183 700 l 1
EndSplineSet
EndChar

StartChar: Z
Encoding: 90 90 23
Width: 650
VWidth: 0
Flags: HMW
LayerCount: 2
Fore
SplineSet
30 0 m 1
 184 165 l 1
 614 165 l 1
 585 0 l 1
 30 0 l 1
168 525 m 1
 198 700 l 1
 753 700 l 1
 608 525 l 1
 168 525 l 1
558 700 m 5
 773 700 l 1
 215 0 l 1
 0 0 l 1
 558 700 l 5
EndSplineSet
EndChar

StartChar: o
Encoding: 111 111 24
Width: 636
VWidth: 0
Flags: HMW
LayerCount: 2
Fore
SplineSet
394 485 m 4
 547.322265625 485 651.327148438 407.970703125 651.327148438 267.629882812 c 4
 651.327148438 85.498046875 483.064453125 -25 324 -25 c 4
 170.677734375 -25 66.6728515625 52.029296875 66.6728515625 192.370117188 c 4
 66.6728515625 374.501953125 234.935546875 485 394 485 c 4
269.472222222 203.148148148 m 4
 269.472222222 160.555555556 291 130 341 130 c 4
 407.099467425 130 448.455532034 185.618051883 448.455532034 256.177871865 c 4
 448.455532034 299.121736379 426.26334039 330 376 330 c 4
 309.712801174 330 269.472222222 273.892684356 269.472222222 203.148148148 c 4
EndSplineSet
EndChar

StartChar: J
Encoding: 74 74 25
Width: 320
VWidth: 0
Flags: HMW
LayerCount: 2
Fore
SplineSet
249 -60 m 5
 66 5 l 1
 188 700 l 1
 383 700 l 5
 249 -60 l 5
-85 -29 m 1
 -75 -52 -46 -70 -10 -70 c 0
 20 -70 54 -61 66 5 c 1
 249 -60 l 5
 228 -179 115 -230 -9 -230 c 0
 -102 -230 -170 -190 -181 -170 c 1
 -85 -29 l 1
EndSplineSet
EndChar

StartChar: t
Encoding: 116 116 26
Width: 345
VWidth: 0
Flags: HMW
LayerCount: 2
Fore
SplineSet
86 460 m 1
 421 460 l 1
 394 305 l 5
 59 305 l 5
 86 460 l 1
189 620 m 1
 374 620 l 1
 265 0 l 1
 80 0 l 1
 189 620 l 1
EndSplineSet
EndChar

StartChar: d
Encoding: 100 100 27
Width: 645
VWidth: 0
Flags: HMW
LayerCount: 2
Fore
SplineSet
538 780 m 5
 733 780 l 5
 595 0 l 5
 400 0 l 5
 538 780 l 5
318 480 m 4
 431.594726562 480 483.67578125 410.629882812 483.67578125 242.057617188 c 4
 483.67578125 139.272460938 370.28125 -20 249 -20 c 4
 137.599609375 -20 65.2919921875 41.376953125 65.2919921875 188.74609375 c 4
 65.2919921875 368.141601562 211.171875 480 318 480 c 4
275.442037723 213.021273415 m 4
 275.442037723 172.61381209 303.262695312 150 343 150 c 4
 386.259765625 150 441.619140625 180.7734375 441.619140625 247.323242188 c 4
 441.619140625 290.98828125 408.601583571 310 373 310 c 4
 324.517593178 310 275.442037723 274.678335099 275.442037723 213.021273415 c 4
EndSplineSet
EndChar

StartChar: l
Encoding: 108 108 28
Width: 295
VWidth: 0
Flags: HMW
LayerCount: 2
Fore
SplineSet
188 780 m 1
 383 780 l 5
 245 0 l 5
 50 0 l 1
 188 780 l 1
EndSplineSet
EndChar

StartChar: i
Encoding: 105 105 29
Width: 286
VWidth: 0
Flags: HMW
LayerCount: 2
Fore
SplineSet
145 622 m 4
 145 676 193 720 253 720 c 4
 313 720 361 676 361 622 c 4
 361 568 313 524 253 524 c 4
 193 524 145 568 145 622 c 4
130 460 m 1
 317 460 l 1
 236 0 l 1
 49 0 l 1
 130 460 l 1
EndSplineSet
EndChar

StartChar: r
Encoding: 114 114 30
Width: 493
VWidth: 0
Flags: HMW
LayerCount: 2
Fore
SplineSet
321 460 m 1
 240 0 l 1
 50 0 l 1
 131 460 l 1
 321 460 l 1
455 262 m 1
 438 288 410 295 384 295 c 0
 329 295 289 276 277 210 c 1
 253 280 l 1
 272 389 366 475 451 475 c 4
 504 475 545 459 564 430 c 1
 455 262 l 1
EndSplineSet
EndChar

StartChar: c
Encoding: 99 99 31
Width: 533
VWidth: 0
Flags: HMW
LayerCount: 2
Fore
SplineSet
280.207015851 210.926552908 m 0
 280.207015851 162.543676675 318.061387386 138 367 138 c 0
 411 138 468 144 518 197 c 1
 485 14 l 1
 449 -9 411 -30 328 -30 c 4
 164.279296875 -30 66.52734375 56.93359375 66.52734375 200.205078125 c 4
 66.52734375 364.662109375 203.172851562 490 399 490 c 0
 482 490 534 465 562 446 c 1
 529 264 l 1
 497 317 434 322 400 322 c 0
 339.749573572 322 280.207015851 275.262447919 280.207015851 210.926552908 c 0
EndSplineSet
EndChar

StartChar: b
Encoding: 98 98 32
Width: 645
VWidth: 0
Flags: HMW
LayerCount: 2
Fore
SplineSet
408 -20 m 4
 294.405273438 -20 242.32421875 49.3701171875 242.32421875 217.942382812 c 4
 242.32421875 320.727539062 355.71875 480 477 480 c 4
 588.400390625 480 660.708007812 418.623046875 660.708007812 271.25390625 c 4
 660.708007812 91.8583984375 514.828125 -20 408 -20 c 4
450.557617188 246.978515625 m 4
 450.557617188 287.385742188 421.737304688 310 382 310 c 4
 338.740234375 310 284.380859375 279.2265625 284.380859375 212.676757812 c 4
 284.380859375 169.01171875 317.3984375 150 353 150 c 4
 401.482421875 150 450.557617188 185.321289062 450.557617188 246.978515625 c 4
383 780 m 5
 245 0 l 5
 50 0 l 5
 188 780 l 5
 383 780 l 5
EndSplineSet
EndChar

StartChar: p
Encoding: 112 112 33
Width: 645
VWidth: 0
Flags: HMW
LayerCount: 2
Fore
SplineSet
408 -20 m 0
 294.405273438 -20 242.32421875 49.3701171875 242.32421875 217.942382812 c 0
 242.32421875 320.727539062 355.71875 480 477 480 c 0
 588.400390625 480 660.708007812 418.623046875 660.708007812 271.25390625 c 0
 660.708007812 91.8583984375 514.828125 -20 408 -20 c 0
450.557617188 246.978515625 m 0
 450.557617188 287.385742188 422.737304688 310 383 310 c 0
 339.740234375 310 284.380859375 279.2265625 284.380859375 212.676757812 c 0
 284.380859375 169.01171875 317.3984375 150 353 150 c 0
 401.482421875 150 450.557617188 185.321289062 450.557617188 246.978515625 c 0
206 -220 m 1
 11 -220 l 1
 131 460 l 1
 326 460 l 1
 206 -220 l 1
EndSplineSet
EndChar

StartChar: q
Encoding: 113 113 34
Width: 645
VWidth: 0
Flags: HMW
LayerCount: 2
Fore
SplineSet
318 480 m 0
 431.594726562 480 483.67578125 410.629882812 483.67578125 242.057617188 c 0
 483.67578125 139.272460938 370.28125 -20 249 -20 c 0
 137.599609375 -20 65.2919921875 41.376953125 65.2919921875 188.74609375 c 0
 65.2919921875 368.141601562 211.171875 480 318 480 c 0
275.442382812 213.021484375 m 0
 275.442382812 172.614257812 304.262695312 150 344 150 c 0
 387.259765625 150 441.619140625 180.7734375 441.619140625 247.323242188 c 0
 441.619140625 290.98828125 408.6015625 310 373 310 c 0
 324.517578125 310 275.442382812 274.678710938 275.442382812 213.021484375 c 0
361 -220 m 1
 481 460 l 1
 676 460 l 1
 556 -220 l 1
 361 -220 l 1
EndSplineSet
EndChar

StartChar: h
Encoding: 104 104 35
Width: 595
VWidth: 0
Flags: HMW
LayerCount: 2
Fore
SplineSet
600 310 m 1
 545 0 l 1
 350 0 l 1
 399 280 l 1
 600 310 l 1
383 780 m 1
 245 0 l 1
 50 0 l 1
 188 780 l 1
 383 780 l 1
600 310 m 1
 399 280 l 1
 406 321 403 346 363 346 c 0
 328 346 302 326 294 280 c 1
 268 280 l 1
 287 389 347 481 452 481 c 4
 597 481 619 419 600 310 c 1
EndSplineSet
EndChar

StartChar: n
Encoding: 110 110 36
Width: 605
VWidth: 0
Flags: HMW
LayerCount: 2
Fore
SplineSet
610 310 m 1
 555 0 l 1
 350 0 l 1
 399 280 l 1
 610 310 l 1
326 460 m 1
 245 0 l 1
 50 0 l 1
 131 460 l 1
 326 460 l 1
610 310 m 1
 399 280 l 1
 406 321 403 346 363 346 c 0
 328 346 302 326 294 280 c 1
 268 280 l 1
 287 389 347 481 462 481 c 4
 597 481 629 419 610 310 c 1
EndSplineSet
EndChar

StartChar: m
Encoding: 109 109 37
Width: 825
VWidth: 0
Flags: HMW
LayerCount: 2
Fore
SplineSet
830 310 m 1
 775 0 l 1
 580 0 l 1
 629 280 l 1
 830 310 l 1
830 310 m 1
 629 280 l 1
 636 321 635 346 605 346 c 0
 580 346 562 326 554 280 c 1
 498 280 l 1
 517 389 607 481 712 481 c 4
 837 481 849 419 830 310 c 1
560 310 m 1
 505 0 l 1
 310 0 l 1
 359 280 l 1
 560 310 l 1
316 460 m 1
 235 0 l 1
 50 0 l 1
 131 460 l 1
 316 460 l 1
560 310 m 1
 359 280 l 1
 366 321 365 346 335 346 c 0
 310 346 292 326 284 280 c 1
 258 280 l 1
 277 389 337 481 442 481 c 4
 567 481 579 419 560 310 c 1
EndSplineSet
EndChar

StartChar: k
Encoding: 107 107 38
Width: 660
VWidth: 0
Flags: W
HStem: 0 21G<50 238.538 422.63 650> 440 20G<448 711> 760 20G<184.462 373>
LayerCount: 2
Fore
SplineSet
268 270 m 1
 483 270 l 1
 650 0 l 1
 435 0 l 1
 268 270 l 1
472 460 m 5
 711 460 l 1
 483 270 l 1
 244 270 l 5
 472 460 l 5
188 780 m 1
 373 780 l 1
 235 0 l 1
 50 0 l 1
 188 780 l 1
EndSplineSet
EndChar

StartChar: u
Encoding: 117 117 39
Width: 605
VWidth: 0
Flags: HMW
LayerCount: 2
Fore
SplineSet
76 150 m 1
 131 460 l 1
 336 460 l 1
 287 180 l 1
 76 150 l 1
360 0 m 1
 441 460 l 1
 636 460 l 1
 555 0 l 1
 360 0 l 1
76 150 m 1
 287 180 l 1
 280 139 283 114 323 114 c 0
 358 114 384 134 392 180 c 1
 418 180 l 1
 399 71 339 -21 224 -21 c 4
 89 -21 57 41 76 150 c 1
EndSplineSet
EndChar

StartChar: e
Encoding: 101 101 40
Width: 609
VWidth: 0
Flags: HMW
LayerCount: 2
Fore
SplineSet
260 190 m 5
 279 299 l 5
 607 299 l 5
 607 190 l 5
 260 190 l 5
607 190 m 5
 414 250 l 5
 418.053125915 273.237921915 420.207924845 292.679189859 420.207924845 308.678918829 c 4
 420.207924845 351.89174322 404.489580282 370 368 370 c 4
 320.248712807 370 289.826834871 338.989478171 275.863311879 270 c 5
 275.863311879 270 262.102110024 213.717403705 262.102110024 181.475016891 c 4
 262.102110024 125.511504026 288.411084668 110 327 110 c 4
 374 110 414 125 431 165 c 5
 603 137 l 5
 550 42 443 -20 324 -20 c 4
 142.385742188 -20 66.2451171875 64.7109375 66.2451171875 198.796875 c 4
 66.2451171875 353.669921875 212.024414062 485 379 485 c 4
 547.775390625 485 621.855475844 407.64512508 621.855475844 291.140737971 c 4
 621.855475844 252.435334752 617.317400883 229.206123357 607 190 c 5
EndSplineSet
EndChar

StartChar: g
Encoding: 103 103 41
Width: 635
VWidth: 0
Flags: HMW
LayerCount: 2
Fore
SplineSet
318 480 m 0
 431.594726562 480 483.67578125 410.629882812 483.67578125 242.057617188 c 0
 483.67578125 139.272460938 370.28125 -20 249 -20 c 0
 137.599609375 -20 65.2919921875 41.376953125 65.2919921875 188.74609375 c 0
 65.2919921875 368.141601562 211.171875 480 318 480 c 0
275.442037723 213.021273415 m 0
 275.442037723 172.61381209 303.262695312 150 343 150 c 0
 386.259765625 150 441.619140625 180.7734375 441.619140625 247.323242188 c 0
 441.619140625 290.98828125 408.601583571 310 373 310 c 0
 324.517593178 310 275.442037723 274.678335099 275.442037723 213.021273415 c 0
34 -35 m 1
 221 -35 l 1
 221 -86 249 -95 289 -95 c 0
 349 -95 390 -56 402 10 c 1
 587 10 l 1
 554 -179 428 -245 293 -245 c 4
 89 -245 34 -159 34 -35 c 1
402 10 m 1
 481 460 l 1
 666 460 l 1
 587 10 l 1
 402 10 l 1
EndSplineSet
EndChar

StartChar: f
Encoding: 102 102 42
Width: 379
VWidth: 0
Flags: HMW
LayerCount: 2
Fore
SplineSet
86 460 m 1
 451 460 l 1
 424 305 l 1
 59 305 l 1
 86 460 l 1
181 630 m 1
 356 575 l 1
 255 0 l 1
 70 0 l 1
 181 630 l 1
455 605 m 5
 445 620 433 630 414 630 c 4
 384 630 362 611 356 575 c 5
 181 630 l 5
 198 729 285 800 389 800 c 4
 502 800 529 763 550 743 c 5
 455 605 l 5
EndSplineSet
EndChar

StartChar: s
Encoding: 115 115 43
Width: 468
VWidth: 0
Flags: HMW
LayerCount: 2
Fore
SplineSet
84 188 m 1
 130 152 226 104 273 104 c 0
 285.670529423 104 296.149831273 108.551779714 296.149831273 122.86138705 c 0
 296.149831273 146.661841702 231.76953125 149.677734375 184 176 c 0
 137.119140625 202.044921875 89.2822265625 228.84375 89.2822265625 319.115234375 c 4
 89.2822265625 408.3203125 172.714917296 485 314 485 c 0
 377 485 447 461 510 430 c 1
 437 292 l 1
 399 330 333 349 296 349 c 0
 268.891223651 349 257.804318409 345.17372036 257.804318409 331.876468746 c 0
 257.804318409 311.394616782 313.90234375 297.24609375 370 275 c 0
 423.564453125 253.92578125 474.044921875 213.995117188 474.044921875 142.553710938 c 0
 474.044921875 20.39453125 376.351235541 -25 251 -25 c 0
 166 -25 90 8 14 53 c 1
 84 188 l 1
EndSplineSet
EndChar

StartChar: y
Encoding: 121 121 44
Width: 580
VWidth: 0
Flags: HW
LayerCount: 2
Fore
SplineSet
278 114 m 1
 338 114 l 0
 676 460 l 1
 256 -220 l 1
 46 -220 l 5
 248 114 l 4
 278 114 l 1
466 460 m 5
 676 460 l 1
 327 -15 l 1
 250 85 l 5
 466 460 l 5
66 460 m 1
 266 460 l 1
 350 85 l 1
 212 -15 l 1
 66 460 l 1
EndSplineSet
EndChar

StartChar: w
Encoding: 119 119 45
Width: 810
VWidth: 0
Flags: HW
LayerCount: 2
Fore
SplineSet
701 460 m 1
 906 460 l 1
 554 -65 l 1
 553 185 l 1
 701 460 l 1
425 285 m 1
 494 505 l 1
 634 165 l 5
 554 -65 l 1
 425 285 l 1
494 505 m 1
 485 275 l 1
 234 -65 l 1
 214 165 l 1
 494 505 l 1
66 460 m 1
 261 460 l 1
 313 185 l 1
 234 -65 l 1
 66 460 l 1
EndSplineSet
EndChar

StartChar: v
Encoding: 118 118 46
Width: 580
VWidth: 0
Flags: HW
LayerCount: 2
Fore
SplineSet
456 460 m 5
 666 460 l 1
 279 -65 l 1
 300 200 l 5
 456 460 l 5
76 460 m 1
 276 460 l 1
 340 200 l 1
 279 -65 l 1
 76 460 l 1
EndSplineSet
EndChar

StartChar: x
Encoding: 120 120 47
Width: 600
VWidth: 0
Flags: W
HStem: 0 21G<0 244.391 381.783 590> 440 20G<91 308.783 436.174 671>
LayerCount: 2
Fore
SplineSet
91 460 m 1
 296 460 l 1
 590 0 l 1
 395 0 l 5
 91 460 l 1
456 460 m 1
 671 460 l 1
 225 0 l 1
 0 0 l 1
 456 460 l 1
EndSplineSet
EndChar

StartChar: z
Encoding: 122 122 48
Width: 560
VWidth: 0
Flags: HMW
LayerCount: 2
Fore
SplineSet
196 175 m 1
 536 175 l 1
 505 0 l 1
 15 0 l 1
 196 175 l 1
146 460 m 1
 626 460 l 1
 465 285 l 1
 115 285 l 1
 146 460 l 1
416 460 m 5
 626 460 l 1
 255 0 l 1
 15 0 l 1
 416 460 l 5
EndSplineSet
EndChar

StartChar: j
Encoding: 106 106 49
Width: 285
VWidth: 0
Flags: HMW
LayerCount: 2
Fore
SplineSet
145 622 m 0
 145 676 193 720 253 720 c 0
 313 720 361 676 361 622 c 0
 361 568 313 524 253 524 c 0
 193 524 145 568 145 622 c 0
-53 -55 m 1
 -43 -70 -31 -80 -12 -80 c 0
 18 -80 40 -61 46 -25 c 1
 221 -80 l 1
 204 -179 117 -250 13 -250 c 0
 -100 -250 -127 -213 -148 -193 c 1
 -53 -55 l 1
221 -80 m 1
 46 -25 l 1
 131 460 l 1
 316 460 l 1
 221 -80 l 1
EndSplineSet
EndChar

StartChar: P
Encoding: 80 80 50
Width: 643
VWidth: 0
Flags: HMW
LayerCount: 2
Fore
SplineSet
396 230 m 5
 405 395 l 1
 478.459912908 395 521.794241159 413.354508974 521.794241159 483.380555982 c 0
 521.794241159 524.156019207 489.726666628 535 429 535 c 1
 438 700 l 1
 636.645507812 700 715.048828125 624.690429688 715.048828125 499.29296875 c 0
 715.048828125 330.484375 594.495117188 230 396 230 c 5
243 230 m 1
 272 395 l 1
 405 395 l 1
 396 230 l 5
 243 230 l 1
296 535 m 1
 325 700 l 1
 438 700 l 1
 429 535 l 1
 296 535 l 1
183 700 m 1
 363 700 l 1
 240 0 l 1
 60 0 l 1
 183 700 l 1
EndSplineSet
EndChar

StartChar: U
Encoding: 85 85 51
Width: 716
VWidth: 0
Flags: HMW
LayerCount: 2
Fore
SplineSet
579 700 m 1
 779 700 l 1
 697 230 l 1
 497 230 l 1
 579 700 l 1
183 700 m 1
 383 700 l 1
 301 230 l 1
 101 230 l 1
 183 700 l 1
371 -40 m 4
 215.337632628 -40 95.2796658347 16.1758320235 95.2796658347 168.642940023 c 0
 95.2796658347 187.583631804 97.1324734744 208.010349183 101 230 c 1
 301 230 l 1
 299.456282495 221.355181975 298.651314748 213.115484784 298.651314748 205.361841527 c 0
 298.651314748 162.888398321 322.806022532 135 382 135 c 0
 452 135 487 174 497 230 c 1
 697 230 l 1
 662 31 536 -40 371 -40 c 4
EndSplineSet
EndChar

StartChar: S
Encoding: 83 83 52
Width: 647
VWidth: 0
Flags: HMW
LayerCount: 2
Fore
SplineSet
203 256 m 1
 232 180 297 138 364 138 c 0
 413.905418377 138 453.466214591 163.64602034 453.466214591 198.274755597 c 0
 453.466214591 235.165449398 393.689453125 268.4765625 323 300 c 0
 266.46875 325.125 162.094726562 381.989257812 162.094726562 497.556640625 c 4
 162.094726562 636.616210938 280.671875 730 456 730 c 0
 619 730 701 635 716 564 c 1
 549 484 l 1
 519 542 488 569 438 569 c 0
 393.966167751 569 371.226715262 554.309598724 371.226715262 525.3335129 c 0
 371.226715262 485.096665844 423.86981472 463.857281523 494 433 c 0
 554.923590573 406.630087662 665.458007812 337.108398438 665.458007812 217.821289062 c 0
 665.458007812 41.95703125 523.924804688 -30 341 -30 c 0
 206 -30 72 43 48 158 c 1
 203 256 l 1
EndSplineSet
EndChar

StartChar: at
Encoding: 64 64 53
Width: 770
VWidth: 0
Flags: HMW
LayerCount: 2
Fore
SplineSet
390 85 m 1
 480 85 512 94 580 116 c 1
 641 15 l 1
 575 -17 503 -35 379 -35 c 1
 390 85 l 1
245 310 m 0
 270 449 358 540 433 540 c 0
 498 540 542 449 526 360 c 0
 501 221 418 140 343 140 c 0
 258 140 228 211 245 310 c 0
384.905136864 268.203840588 m 0
 384.905136864 250.142857143 390.952568432 245 397 245 c 0
 406.635924603 245 468.828706473 337.888957245 468.828706473 416.532325339 c 0
 468.828706473 432.932306535 463.189738286 435 456 435 c 4
 432.370073301 435 384.905136864 337.610176759 384.905136864 268.203840588 c 0
534 730 m 0
 733.30078125 730 834.1796875 586.1953125 834.1796875 438.331054688 c 0
 834.1796875 240.870117188 698.434570312 130 584 130 c 0
 513 130 450 194 472 260 c 0
 476 271 421 251 425 260 c 2
 517 520 l 1
 668 520 l 1
 615 319 l 2
 613 312 609 300 608 292 c 0
 604 268 608 256 621 256 c 0
 652.744074854 256 698.696937441 327.32440418 698.696937441 440.646149446 c 0
 698.696937441 538.603867899 641.394236578 610 523 610 c 0
 344.261148881 610 195.322124945 468.150037826 195.322124945 259.225324373 c 0
 195.322124945 151.46771748 267.202148438 85 390 85 c 1
 379 -35 l 1
 176.5625 -35 58.9052734375 81.7548828125 58.9052734375 252.098632812 c 0
 58.9052734375 521.431640625 293.983398438 730 534 730 c 0
EndSplineSet
EndChar

StartChar: period
Encoding: 46 46 54
Width: 336
VWidth: 0
Flags: HMW
LayerCount: 2
Fore
SplineSet
50 75 m 4
 50 138 98 180 168 180 c 0
 238 180 286 138 286 75 c 4
 286 12 238 -30 168 -30 c 0
 98 -30 50 12 50 75 c 4
EndSplineSet
EndChar

StartChar: comma
Encoding: 44 44 55
Width: 333
VWidth: 0
Flags: HMW
LayerCount: 2
Fore
SplineSet
122 110 m 1
 321 76 l 5
 142 -174 l 5
 -11 -149 l 1
 122 110 l 1
EndSplineSet
EndChar

StartChar: exclam
Encoding: 33 33 59
Width: 370
VWidth: 0
Flags: HMW
LayerCount: 2
Fore
SplineSet
178 700 m 1
 418 700 l 1
 299 250 l 1
 139 250 l 1
 178 700 l 1
EndSplineSet
Refer: 54 46 S 1 0 0 1 22 0 2
EndChar

StartChar: quotesingle
Encoding: 39 39 60
Width: 285
VWidth: 0
Flags: HMW
LayerCount: 2
Fore
SplineSet
178 700 m 1
 378 700 l 1
 205 370 l 5
 80 370 l 5
 178 700 l 1
EndSplineSet
EndChar

StartChar: numbersign
Encoding: 35 35 61
Width: 705
VWidth: 0
Flags: HMW
LayerCount: 2
Fore
SplineSet
145 395 m 1
 172 550 l 1
 767 550 l 1
 740 395 l 1
 145 395 l 1
62 155 m 5
 90 310 l 5
 685 310 l 5
 657 155 l 5
 62 155 l 5
608 700 m 1
 773 700 l 1
 480 0 l 1
 315 0 l 1
 608 700 l 1
348 700 m 1
 513 700 l 1
 220 0 l 1
 55 0 l 1
 348 700 l 1
EndSplineSet
EndChar

StartChar: hyphen
Encoding: 45 45 62
Width: 230
VWidth: 0
Flags: HMW
LayerCount: 2
Fore
SplineSet
42 155 m 5
 52 320 l 5
 272 320 l 5
 262 155 l 5
 42 155 l 5
EndSplineSet
EndChar

StartChar: dollar
Encoding: 36 36 63
Width: 647
VWidth: 0
Flags: HMW
LayerCount: 2
Fore
SplineSet
305 69 m 1
 418 69 l 5
 387 -107 l 5
 274 -107 l 1
 305 69 l 1
438 825 m 1
 551 825 l 5
 516 622 l 5
 403 622 l 1
 438 825 l 1
EndSplineSet
Refer: 52 83 N 1 0 0 1 0 0 2
EndChar

StartChar: bar
Encoding: 124 124 64
Width: 369
VWidth: 0
Flags: HMW
LayerCount: 2
Fore
SplineSet
238 785 m 1
 407 785 l 5
 231 -215 l 5
 62 -215 l 1
 238 785 l 1
EndSplineSet
EndChar

StartChar: zero
Encoding: 48 48 65
Width: 680
VWidth: 0
Flags: HMW
LayerCount: 2
Fore
SplineSet
292.443481539 256.679363782 m 0
 292.443481539 176.997774316 322.041481643 150 366 150 c 0
 439.377652719 150 511.411006505 281.289297152 511.411006505 442.206609047 c 0
 511.411006505 522.750777126 481.162751646 550 437 550 c 0
 363.549858882 550 292.443481539 417.20859209 292.443481539 256.679363782 c 0
458 725 m 4
 634.952148438 725 713.495117188 613.911132812 713.495117188 459.823242188 c 4
 713.495117188 156.609375 567.024414062 -25 346 -25 c 4
 175.12890625 -25 91.271484375 88.517578125 91.271484375 246.736328125 c 4
 91.271484375 547.600585938 248.931640625 725 458 725 c 4
EndSplineSet
EndChar

StartChar: one
Encoding: 49 49 66
Width: 515
VWidth: 0
Flags: HMW
LayerCount: 2
Fore
SplineSet
145 484 m 5
 176 657 l 1
 554 730 l 1
 468 557 l 5
 145 484 l 5
357 690 m 1
 554 730 l 1
 425 0 l 1
 235 0 l 1
 357 690 l 1
EndSplineSet
EndChar

StartChar: two
Encoding: 50 50 67
Width: 669
VWidth: 0
Flags: HMW
LayerCount: 2
Fore
SplineSet
94 0 m 1
 214 170 l 1
 654 170 l 1
 624 0 l 1
 94 0 l 1
560 267 m 1
 203 0 l 1
 20 0 l 1
 400 335 l 1
 475.3127568 396.619528291 528.765769458 442.652423888 528.765769458 504.478884474 c 0
 528.765769458 533.456852269 500.559824665 551 464 551 c 0
 414 551 369 536 356 460 c 1
 161 460 l 1
 187 609 330 726 485 726 c 4
 633.603515625 726 720.828125 625.963867188 720.828125 518.442382812 c 0
 720.828125 393.262695312 638 325 560 267 c 1
EndSplineSet
EndChar

StartChar: four
Encoding: 52 52 68
Width: 708
VWidth: 0
Flags: HMW
LayerCount: 2
Fore
SplineSet
428 397 m 1
 303 265 l 1
 405 265 l 1
 428 397 l 1
659 630 m 1
 596 275 l 1
 706 275 l 1
 675 95 l 1
 565 95 l 1
 548 0 l 1
 348 0 l 1
 365 95 l 1
 97 95 l 1
 80 225 l 1
 684 770 l 1
 659 630 l 1
EndSplineSet
EndChar

StartChar: slash
Encoding: 47 47 69
Width: 665
VWidth: 0
Flags: HMW
LayerCount: 2
Fore
SplineSet
578 700 m 1
 773 700 l 1
 194 -150 l 5
 -11 -150 l 1
 578 700 l 1
EndSplineSet
EndChar

StartChar: backslash
Encoding: 92 92 70
Width: 565
VWidth: 0
Flags: HMW
LayerCount: 2
Fore
SplineSet
138 700 m 1
 333 700 l 1
 550 0 l 1
 355 0 l 5
 138 700 l 1
EndSplineSet
EndChar

StartChar: eight
Encoding: 56 56 71
Width: 636
VWidth: 0
Flags: HMW
LayerCount: 2
Fore
SplineSet
335.08868591 500.120664718 m 0
 335.08868591 471.777572988 358.38186357 450 397 450 c 0
 441.985578633 450 479.9412459 479.528821422 479.9412459 520.187780469 c 0
 479.9412459 548.380270376 457.477930218 570 419 570 c 0
 374.14185612 570 335.08868591 540.637308704 335.08868591 500.120664718 c 0
436 725 m 0
 573.928710938 725 654.375976562 661.170898438 654.375976562 540.682617188 c 4
 654.375976562 377.138671875 506.413228262 335 377 335 c 0
 272.188568793 335 160.731445312 379.919921875 160.731445312 479.567382812 c 4
 160.731445312 652.03515625 298.672851562 725 436 725 c 0
389 400 m 0
 494.772529511 400 625.078125 360.240234375 625.078125 227.924804688 c 0
 625.078125 45.7392578125 448.702148438 -25 324 -25 c 0
 192.89453125 -25 81.4453125 23.28515625 81.4453125 165.229492188 c 0
 81.4453125 340.2578125 258.590689022 400 389 400 c 0
268.251962469 205.527581063 m 0
 268.251962469 162.889324993 299.903607324 145 344 145 c 0
 395.273433457 145 445.28372106 173.043089008 445.28372106 238.309419339 c 0
 445.28372106 276.122893171 416.49884792 300 371 300 c 0
 314.49905088 300 268.251962469 264.357028081 268.251962469 205.527581063 c 0
EndSplineSet
EndChar

StartChar: three
Encoding: 51 51 73
Width: 636
VWidth: 0
Flags: HMW
LayerCount: 2
Fore
SplineSet
335 325 m 1
 355 439 l 1
 417.979305994 439 462.099781296 477.998684742 462.099781296 529.056139346 c 0
 462.099781296 553.242549171 439.607421875 570 414 570 c 0
 369 570 344 532 338 496 c 1
 157 496 l 1
 177 610 301 725 441 725 c 0
 593.012695312 725 671.869140625 649.040039062 671.869140625 548.608398438 c 0
 671.869140625 396.982421875 495.545218668 325 335 325 c 1
324 -25 m 4
 145.959960938 -25 74.3625173949 58.3785984321 74.3625173949 165.415633234 c 0
 74.3625173949 184.629872321 76.3474290287 204.606478743 80 225 c 1
 276 225 l 1
 274.655690676 217.126188247 273.82771494 208.772923876 273.82771494 200.414752886 c 0
 273.82771494 165.250799987 288.482872292 130 341 130 c 0
 386.651195576 130 426.961992129 157.686170194 426.961992129 223.728332459 c 0
 426.961992129 265.142718794 402.473781031 285 328 285 c 1
 348 399 l 1
 491.644783608 399 632.713023133 347.469118357 632.713023133 225.305052252 c 0
 632.713023133 77.2901158648 525.916992188 -25 324 -25 c 4
EndSplineSet
EndChar

StartChar: five
Encoding: 53 53 74
Width: 674
VWidth: 0
Flags: HMW
LayerCount: 2
Fore
SplineSet
285 700 m 1
 485 700 l 1
 364 417 l 1
 131 237 l 1
 285 700 l 1
285 700 m 1
 695 700 l 1
 667 540 l 1
 257 540 l 1
 285 700 l 1
335 -25 m 0
 206 -25 92 32 60 112 c 1
 234 236 l 1
 254 176 299 155 356 155 c 0
 415.208523841 155 463.287953585 192.315891387 463.287953585 244.557952516 c 0
 463.287953585 279.768806369 438.836638151 310 364 310 c 0
 287 310 231 287 131 237 c 1
 251 403 l 1
 308 463 414 475 473 475 c 0
 566.142581824 475 670.301757812 403.064453125 670.301757812 266.38671875 c 4
 670.301757812 50.666015625 472.395507812 -25 335 -25 c 0
EndSplineSet
EndChar

StartChar: six
Encoding: 54 54 75
Width: 666
VWidth: 0
Flags: HMW
LayerCount: 2
Fore
SplineSet
458 700 m 1
 677 700 l 1
 391 385 l 1
 185 405 l 1
 458 700 l 1
185 405 m 0
 193.439855908 414.042702758 203.878545605 416.907191988 215.193236889 416.907191988 c 0
 234.754798679 416.907191988 256.934703404 408.345318087 275.930689411 408.345318087 c 0
 282.399372781 408.345318087 288.498849023 409.338152753 294 412 c 1
 343 440 384 473 467 473 c 0
 573.144189049 473 660.989257812 390.256835938 660.989257812 263.737304688 c 4
 660.989257812 84.5810546875 495.76953125 -25 339 -25 c 4
 194.168945312 -25 86.8095703125 62.5654296875 86.8095703125 193.728515625 c 0
 86.8095703125 277.473632812 142.422410166 358.665564004 185 405 c 0
298.174290543 210.328946232 m 0
 298.174290543 171.610651841 321.880391252 150 359 150 c 0
 406.200799623 150 449.77600409 187.27108249 449.77600409 249.279361754 c 0
 449.77600409 288.704566468 425.275459626 312 388 312 c 0
 340.852725157 312 298.174290543 272.206108763 298.174290543 210.328946232 c 0
EndSplineSet
EndChar

StartChar: seven
Encoding: 55 55 76
Width: 600
VWidth: 0
Flags: HMW
LayerCount: 2
Fore
SplineSet
123 525 m 1
 153 700 l 1
 723 700 l 1
 613 525 l 1
 123 525 l 1
499 700 m 1
 723 700 l 1
 320 0 l 5
 96 0 l 1
 499 700 l 1
EndSplineSet
EndChar

StartChar: plus
Encoding: 43 43 77
Width: 710
VWidth: 0
Flags: HMW
LayerCount: 2
Fore
SplineSet
98 185 m 1
 130 370 l 1
 710 370 l 5
 678 185 l 5
 98 185 l 1
355 565 m 1
 555 565 l 5
 453 -10 l 5
 253 -10 l 1
 355 565 l 1
EndSplineSet
EndChar

StartChar: percent
Encoding: 37 37 79
Width: 1021
VWidth: 0
Flags: HMW
LayerCount: 2
Fore
SplineSet
108 525 m 4
 127 635 236 725 351 725 c 4
 466 725 543 635 524 525 c 4
 505 415 395 325 280 325 c 4
 165 325 89 415 108 525 c 4
265 525 m 4
 260 498 279 476 307 476 c 4
 335 476 362 498 367 525 c 4
 372 552 352 574 324 574 c 4
 296 574 270 552 265 525 c 4
621 176 m 4
 640 286 749 376 864 376 c 4
 979 376 1056 286 1037 176 c 4
 1018 66 909 -24 794 -24 c 4
 679 -24 602 66 621 176 c 4
778 176 m 4
 773 149 792 127 820 127 c 4
 848 127 875 149 880 176 c 4
 885 203 866 225 838 225 c 4
 810 225 783 203 778 176 c 4
826 700 m 5
 1031 700 l 5
 318 0 l 5
 113 0 l 5
 826 700 l 5
EndSplineSet
EndChar

StartChar: ampersand
Encoding: 38 38 80
Width: 799
VWidth: 0
Flags: HMW
LayerCount: 2
Fore
SplineSet
692 564 m 5
 692 437 541 393 472 358 c 0
 396.121919618 319.592576597 276.022952582 316.083910646 276.022952582 208.031968795 c 0
 276.022952582 168.588042826 305.9296875 145 361 145 c 0
 498 145 595 256 674 356 c 1
 791 245 l 1
 694 125 530 -25 331 -25 c 0
 157.701171875 -25 70.3408203125 53.755859375 70.3408203125 160.529296875 c 0
 70.3408203125 349.326171875 318.093019815 402.698579149 401 435 c 0
 482 467 511 488 511 524 c 1
 692 564 l 5
287 364 m 1
 252.798401267 417.867518004 224.4453125 466.381835938 224.4453125 518.298828125 c 0
 224.4453125 634.4140625 342.638671875 726 492 726 c 0
 638 726 690 638 692 564 c 5
 511 524 l 1
 511 545 504 565 467 565 c 0
 435.876953125 565 411.257522117 544.006299495 411.257522117 507.226073022 c 0
 411.257522117 475.679136336 440.745546463 450.090360025 482 385 c 1
 784 0 l 1
 564 0 l 1
 287 364 l 1
EndSplineSet
EndChar

StartChar: question
Encoding: 63 63 81
Width: 669
VWidth: 0
Flags: HMW
LayerCount: 2
Fore
SplineSet
291 400 m 1
 481 400 l 1
 439 220 l 1
 279 220 l 1
 291 400 l 1
512.071259993 511.960266207 m 0
 512.071259993 545.62800682 483.889707221 565 421 565 c 0
 364 565 292 546 249 476 c 1
 144 587 l 1
 202 657 310 725 449 725 c 4
 602.1796875 725 710.364257812 671.725585938 710.364257812 547.456054688 c 0
 710.364257812 359.592773438 474.26525284 270 354 270 c 1
 327 400 l 1
 450.905957523 400 512.071259993 464.036797829 512.071259993 511.960266207 c 0
EndSplineSet
Refer: 54 46 N 1 0 0 1 152 0 2
EndChar

StartChar: parenleft
Encoding: 40 40 82
Width: 360
VWidth: 0
Flags: HMW
LayerCount: 2
Fore
SplineSet
318 780 m 1
 493 780 l 1
 367.444234811 583.819116892 275.34765625 386.747070312 275.34765625 129.420898438 c 4
 275.34765625 21.544921875 291.657157961 -103.376674868 320 -200 c 1
 145 -200 l 1
 109.418831292 -101.163420254 90.7700230425 -13.6435787345 90.7700230425 116.838031927 c 4
 90.7700230425 391.839307396 181.983247544 587.523463506 318 780 c 1
EndSplineSet
EndChar

StartChar: asterisk
Encoding: 42 42 84
Width: 592
VWidth: 0
Flags: HMW
LayerCount: 2
Fore
SplineSet
585 637 m 1
 610 466 l 1
 389 433 l 1
 374 537 l 1
 585 637 l 1
559 364 m 1
 395 258 l 1
 331 453 l 1
 432 517 l 1
 559 364 l 1
288 258 m 1
 161 364 l 1
 343 517 l 1
 420 453 l 1
 288 258 l 1
146 466 m 1
 232 637 l 1
 408 537 l 1
 355 433 l 1
 146 466 l 1
329 700 m 1
 509 700 l 1
 437 485 l 1
 327 485 l 1
 329 700 l 1
EndSplineSet
EndChar

StartChar: less
Encoding: 60 60 85
Width: 640
VWidth: 0
Flags: HMW
LayerCount: 2
Fore
SplineSet
121 315 m 1
 236 305 l 1
 219 210 l 1
 100 200 l 1
 121 315 l 1
222 200 m 5
 121 315 l 1
 668 525 l 1
 636 335 l 5
 222 200 l 5
100 200 m 1
 241 305 l 1
 605 160 l 1
 573 -10 l 1
 100 200 l 1
EndSplineSet
EndChar

StartChar: bracketleft
Encoding: 91 91 87
Width: 400
VWidth: 0
Flags: HMW
LayerCount: 2
Fore
SplineSet
236 -215 m 1
 264 -55 l 1
 370 -55 l 1
 342 -215 l 1
 236 -215 l 1
382 615 m 5
 412 785 l 1
 518 785 l 1
 488 615 l 5
 382 615 l 5
223 785 m 1
 417 785 l 1
 241 -215 l 1
 47 -215 l 1
 223 785 l 1
EndSplineSet
EndChar

StartChar: asciicircum
Encoding: 94 94 89
Width: 510
VWidth: 0
Flags: HMW
LayerCount: 2
Fore
SplineSet
320 710 m 1
 440 710 l 1
 390 595 l 1
 330 595 l 1
 320 710 l 1
345 595 m 5
 440 710 l 1
 563 440 l 1
 398 440 l 5
 345 595 l 5
320 710 m 1
 385 595 l 5
 278 440 l 5
 103 440 l 1
 320 710 l 1
EndSplineSet
EndChar

StartChar: grave
Encoding: 96 96 91
Width: 375
VWidth: 0
Flags: HMW
LayerCount: 2
Fore
SplineSet
160 655 m 1
 300 705 l 5
 422 545 l 5
 313 505 l 1
 160 655 l 1
EndSplineSet
EndChar

StartChar: braceleft
Encoding: 123 123 92
Width: 426
VWidth: 0
Flags: HMW
LayerCount: 2
Fore
SplineSet
222 380 m 1
 190 200 l 1
 90 200 l 1
 122 380 l 1
 222 380 l 1
173 330 m 1
 282 330 352 219 329 90 c 1
 146 100 l 1
 159 176 118 190 90 200 c 1
 90 200 167 315 173 330 c 1
301 -200 m 1
 358 -45 l 1
 388 -45 l 1
 361 -200 l 1
 301 -200 l 1
117 -60 m 1
 147 110 l 1
 329 90 l 1
 314 5 l 1
 117 -60 l 1
358 -45 m 1
 301 -200 l 1
 187 -200 96 -179 117 -60 c 1
 314 5 l 1
 309 -21 323 -45 353 -45 c 2
 358 -45 l 1
122 380 m 1
 154 390 200 404 213 480 c 1
 399 490 l 1
 376 361 268 250 159 250 c 1
 159 266 122 380 122 380 c 1
474 780 m 1
 534 780 l 1
 506 625 l 1
 476 625 l 1
 474 780 l 1
241 640 m 1
 414 575 l 1
 399 490 l 1
 211 470 l 1
 241 640 l 1
476 625 m 1
 471 625 l 2
 441 625 419 601 414 575 c 1
 241 640 l 1
 262 759 360 780 474 780 c 1
 476 625 l 1
EndSplineSet
EndChar

StartChar: asciitilde
Encoding: 126 126 94
Width: 575
VWidth: 0
Flags: HMW
LayerCount: 2
Fore
SplineSet
193 156 m 1
 46 161 l 1
 45 168 46 176 48 185 c 0
 55 226 64 268 98 302 c 0
 132 336 165 357 247 357 c 0
 296 357 328 340 374 308 c 0
 403 288 420 272 438 272 c 0
 456 272 468 290 471 306 c 0
 473 319 471 333 469 343 c 1
 616 338 l 1
 617 330 617 320 615 310 c 0
 608 270 595 231 562 198 c 0
 529 165 505 142 439 142 c 4
 395 142 355 161 308 193 c 0
 279 213 258 228 233 228 c 0
 203 228 193 202 191 188 c 0
 188 171 191 164 193 156 c 1
EndSplineSet
EndChar

StartChar: sterling
Encoding: 163 163 97
Width: 661
VWidth: 0
Flags: HMW
LayerCount: 2
Fore
SplineSet
130 380 m 1
 520 380 l 1
 500 265 l 1
 110 265 l 1
 130 380 l 1
40 0 m 1
 301 175 l 1
 574 175 l 1
 543 0 l 1
 40 0 l 1
507 459 m 1
 507 512 489 546 443 546 c 0
 384.06425205 546 353.134716292 521.069159982 353.134716292 469.088978156 c 0
 353.134716292 407.148541664 404.196160567 374.787607167 404.196160567 298.394752461 c 0
 404.196160567 169.229479964 271.096230618 71.5631360558 187 50 c 1
 40 0 l 1
 156.630323279 102.55424978 231.973144192 185.961585493 231.973144192 290.497239114 c 0
 231.973144192 361.74717909 165.318359375 392.517578125 165.318359375 477.688476562 c 0
 165.318359375 630.990234375 302.610351562 725 470 725 c 0
 633 725 693 612 693 522 c 1
 507 459 l 1
EndSplineSet
EndChar

StartChar: currency
Encoding: 164 164 98
Width: 615
VWidth: 0
Flags: HMW
LayerCount: 2
Fore
SplineSet
72 300 m 4
 100 459 245 555 405 555 c 4
 565 555 676 459 648 300 c 4
 620 141 475 45 315 45 c 4
 155 45 44 141 72 300 c 4
273 300 m 4
 263 244 282 200 342 200 c 4
 402 200 437 244 447 300 c 4
 457 356 438 400 378 400 c 4
 318 400 283 356 273 300 c 4
107 523 m 5
 189 593 l 5
 291 469 l 5
 209 400 l 5
 107 523 l 5
85 7 m 5
 29 77 l 5
 173 200 l 5
 231 131 l 5
 85 7 l 5
547 400 m 5
 490 469 l 5
 636 593 l 5
 692 523 l 5
 547 400 l 5
430 131 m 5
 511 200 l 5
 614 77 l 5
 532 7 l 5
 430 131 l 5
EndSplineSet
EndChar

StartChar: brokenbar
Encoding: 166 166 100
Width: 369
VWidth: 0
Flags: HMW
LayerCount: 2
Fore
SplineSet
213 695 m 5
 382 695 l 5
 337 445 l 5
 168 445 l 5
 213 695 l 5
304 255 m 5
 260 5 l 5
 91 5 l 5
 135 255 l 5
 304 255 l 5
EndSplineSet
EndChar

StartChar: section
Encoding: 167 167 101
Width: 679
VWidth: 0
Flags: HMW
LayerCount: 2
Fore
SplineSet
379 275 m 1
 429 275 463 323 470 363 c 1
 644 370 l 1
 627 271 472 240 373 240 c 1
 379 275 l 1
488 549 m 1
 475 587 452 594 435 594 c 0
 415 594 404 590 401 574 c 1
 234 589 l 1
 247 665 342 720 456 720 c 0
 549 720 624 661 633 610 c 1
 488 549 l 1
234 589 m 1
 401 574 l 1
 398 558 466 537 513 516 c 0
 574 489 656 437 644 370 c 1
 470 363 l 1
 479 413 379 424 330 445 c 0
 271 470 220 512 234 589 c 1
162 349 m 1
 345 369 l 1
 337 323 425 307 472 286 c 0
 533 259 587 217 572 130 c 1
 382 145 l 1
 386 165 345 174 296 195 c 0
 237 220 145 252 162 349 c 1
297 171 m 1
 294 145 311 125 338 125 c 0
 368 125 380 135 382 145 c 1
 572 130 l 1
 553 21 425 -30 326 -30 c 0
 201 -30 124 52 123 127 c 5
 297 171 l 1
429 454 m 1
 365 434 352 410 345 369 c 1
 162 349 l 1
 181 455 320 480 434 480 c 1
 429 454 l 1
EndSplineSet
EndChar

StartChar: copyright
Encoding: 169 169 103
Width: 800
VWidth: 0
Flags: HMW
LayerCount: 2
Fore
SplineSet
151.70703125 280.529296875 m 4
 151.70703125 143.377929688 253.900734018 40 407 40 c 4
 591.815740073 40 772.256303515 193.383465659 772.256303515 409.083787466 c 4
 772.256303515 556.440805619 669.233411001 660 516 660 c 4
 331.047298709 660 151.70703125 506.349609375 151.70703125 280.529296875 c 4
515 710 m 4
 705.657226562 710 828.28125 581.579101562 828.28125 409.326171875 c 4
 828.28125 165.708007812 615.5546875 -10 408 -10 c 4
 217.475585938 -10 95.6826477176 108.246805796 95.6826477176 280.293573388 c 4
 95.6826477176 534.026968249 307.310546875 710 515 710 c 4
EndSplineSet
Refer: 3 67 N 0.6 0 0 0.6 186 140 2
EndChar

StartChar: registered
Encoding: 174 174 104
Width: 800
VWidth: 0
Flags: HMW
LayerCount: 2
Fore
SplineSet
151.70703125 280.529296875 m 0
 151.70703125 143.377929688 253.900734018 40 407 40 c 0
 591.815740073 40 772.256303515 193.383465659 772.256303515 409.083787466 c 0
 772.256303515 556.440805619 669.233411001 660 516 660 c 0
 331.047298709 660 151.70703125 506.349609375 151.70703125 280.529296875 c 0
515 710 m 0
 705.657226562 710 828.28125 581.579101562 828.28125 409.326171875 c 0
 828.28125 165.708007812 615.5546875 -10 408 -10 c 0
 217.475585938 -10 95.6826477176 108.246805796 95.6826477176 280.293573388 c 0
 95.6826477176 534.026968249 307.310546875 710 515 710 c 0
EndSplineSet
Refer: 13 82 S 0.6 0 0 0.6 226 150 2
EndChar

StartChar: logicalnot
Encoding: 172 172 110
Width: 620
VWidth: 0
Flags: HMW
LayerCount: 2
Fore
SplineSet
517 375 m 5
 642 375 l 5
 613 175 l 5
 488 175 l 5
 517 375 l 5
EndSplineSet
Refer: 62 45 S 2.45 0 0 1 -17.25 100 2
EndChar

StartChar: plusminus
Encoding: 177 177 113
Width: 645
VWidth: 0
Flags: HMW
LayerCount: 2
Fore
SplineSet
67 10 m 5
 95 170 l 5
 610 170 l 5
 582 10 l 5
 67 10 l 5
122 325 m 5
 152 495 l 5
 667 495 l 5
 637 325 l 5
 122 325 l 5
334 620 m 5
 529 620 l 5
 455 200 l 5
 260 200 l 5
 334 620 l 5
EndSplineSet
EndChar

StartChar: acute
Encoding: 180 180 116
Width: 375
VWidth: 0
Flags: HMW
LayerCount: 2
Fore
SplineSet
455 645 m 5
 248 495 l 5
 137 555 l 1
 315 715 l 1
 455 645 l 5
EndSplineSet
EndChar

StartChar: paragraph
Encoding: 182 182 118
Width: 728
VWidth: 0
Flags: HMW
LayerCount: 2
Fore
SplineSet
392 590 m 1
 411 700 l 1
 661 700 l 5
 642 590 l 5
 392 590 l 1
621 700 m 5
 791 700 l 5
 629 -220 l 5
 459 -220 l 5
 621 700 l 5
411 700 m 1
 581 700 l 1
 419 -220 l 1
 249 -220 l 1
 411 700 l 1
336 270 m 1
 211 270 121 346 146 485 c 0
 171 624 286 700 411 700 c 1
 336 270 l 1
EndSplineSet
EndChar

StartChar: cedilla
Encoding: 184 184 121
Width: 350
Flags: HMW
LayerCount: 2
Fore
SplineSet
166 60 m 1
 277 60 l 1
 221.799804688 -53.7998046875 l 1
 193.289054433 -53.3668578808 144.540899001 -79.6478633277 86.7998046875 -117.799804688 c 1
 166 60 l 1
295.200195312 -126 m 5
 208.400390625 -126 l 5
 208.400390625 -112.400390625 197.200195312 -100 168.200195312 -100 c 4
 158 -100 109.400390625 -101.799804688 86.7998046875 -117.799804688 c 1
 150.799804688 -68.2001953125 l 1
 176.400390625 -52.2001953125 208.799804688 -42 222.200195312 -42 c 0
 255.200195312 -42 295.200195312 -66.599609375 295.200195312 -126 c 5
295.200195312 -126 m 1
 295.200195312 -207.400390625 233.200195312 -230 168.200195312 -230 c 0
 130.799804688 -230 97.400390625 -217.799804688 69.7998046875 -189.799804688 c 1
 112 -132.400390625 l 1
 130.599609375 -148.400390625 142 -156 168.200195312 -156 c 4
 197.200195312 -156 208.400390625 -139.599609375 208.400390625 -126 c 1
 295.200195312 -126 l 1
EndSplineSet
EndChar

StartChar: multiply
Encoding: 215 215 123
Width: 596
VWidth: 0
Flags: HMW
LayerCount: 2
Fore
SplineSet
324 273 m 1
 369 273 l 1
 362 232 l 1
 317 232 l 1
 324 273 l 1
284 192 m 1
 414 303 l 1
 580 108 l 1
 444 -8 l 1
 284 192 l 1
106 402 m 1
 242 518 l 1
 402 318 l 1
 272 207 l 1
 106 402 l 1
398 207 m 5
 306 318 l 1
 536 518 l 1
 632 402 l 5
 398 207 l 5
150 -8 m 5
 54 108 l 1
 288 303 l 1
 380 192 l 5
 150 -8 l 5
EndSplineSet
EndChar

StartChar: Thorn
Encoding: 222 222 125
Width: 690
VWidth: 0
Flags: HMW
LayerCount: 2
Fore
SplineSet
395 115 m 1
 424 280 l 1
 493 280 530 294 540 350 c 0
 550 406 518 420 449 420 c 1
 478 585 l 1
 683 585 756 499 730 350 c 0
 704 201 600 115 395 115 c 1
262 115 m 1
 291 280 l 1
 424 280 l 1
 395 115 l 1
 262 115 l 1
316 420 m 1
 345 585 l 1
 478 585 l 1
 449 420 l 1
 316 420 l 1
203 700 m 1
 393 700 l 1
 270 0 l 1
 80 0 l 1
 203 700 l 1
EndSplineSet
EndChar

StartChar: circumflex
Encoding: 710 710 128
Width: 480
VWidth: 0
Flags: HMW
LayerCount: 2
Fore
SplineSet
316 660 m 1
 376 770 l 1
 571 630 l 5
 415 540 l 1
 316 660 l 1
376 770 m 1
 396 660 l 1
 255 540 l 1
 131 630 l 1
 376 770 l 1
EndSplineSet
EndChar

StartChar: ogonek
Encoding: 731 731 129
Width: 260
VWidth: 0
Flags: HMW
LayerCount: 2
Fore
SplineSet
194 -120 m 1
 227 -180 l 1
 212 -200 182 -220 139 -220 c 0
 55 -220 6 -189 6 -120 c 5
 106 -100 l 1
 106 -126 124 -140 144 -140 c 0
 170 -140 180 -133 194 -120 c 1
106 -100 m 1
 6 -120 l 1
 6 -51 77.7509765625 -11 147.750976562 25 c 1
 188.750976562 0 l 1
 136.690429688 -22.27734375 106.296875 -72.6220703125 106 -100 c 1
EndSplineSet
EndChar

StartChar: tilde
Encoding: 732 732 130
Width: 530
VWidth: 0
Flags: HMW
LayerCount: 2
Fore
SplineSet
174 645 m 1
 193 694 246 747 321 747 c 0
 360 747 386 720 397 707 c 0
 416 683 435 682 453 682 c 0
 482 682 508 706 534 738 c 1
 604 645 l 1
 582 608 516 552 446 552 c 0
 412 552 384 565 365 587 c 4
 350 604 322 619 297 619 c 0
 261 619 246 583 243 568 c 1
 174 645 l 1
EndSplineSet
EndChar

StartChar: ring
Encoding: 730 730 131
Width: 278
VWidth: 0
Flags: HMW
LayerCount: 2
Fore
SplineSet
172 785 m 4
 172 844.5 213.5 885 276 885 c 4
 338.5 885 380 844.5 380 785 c 4
 380 725.5 338.5 685 276 685 c 4
 213.5 685 172 725.5 172 785 c 4
242.5 785 m 4
 242.5 762 256 747.5 276 747.5 c 4
 296 747.5 309.5 762 309.5 785 c 4
 309.5 808 296 822.5 276 822.5 c 4
 256 822.5 242.5 808 242.5 785 c 4
EndSplineSet
EndChar

StartChar: quoteright
Encoding: 8217 8217 138
Width: 345
VWidth: 0
Flags: HMW
LayerCount: 2
Fore
SplineSet
233 700 m 1
 438 700 l 1
 296 430 l 5
 146 430 l 1
 233 700 l 1
EndSplineSet
EndChar

StartChar: perthousand
Encoding: 8240 8240 143
Width: 1521
VWidth: 0
Flags: HMW
LayerCount: 2
Fore
SplineSet
1121 176 m 4
 1140 286 1249 376 1364 376 c 4
 1479 376 1556 286 1537 176 c 4
 1518 66 1409 -24 1294 -24 c 4
 1179 -24 1102 66 1121 176 c 4
1278 176 m 4
 1273 149 1292 127 1320 127 c 4
 1348 127 1375 149 1380 176 c 4
 1385 203 1366 225 1338 225 c 4
 1310 225 1283 203 1278 176 c 4
108 525 m 4
 127 635 236 725 351 725 c 4
 466 725 543 635 524 525 c 4
 505 415 395 325 280 325 c 4
 165 325 89 415 108 525 c 4
265 525 m 4
 260 498 279 476 307 476 c 4
 335 476 362 498 367 525 c 4
 372 552 352 574 324 574 c 4
 296 574 270 552 265 525 c 4
621 176 m 4
 640 286 749 376 864 376 c 4
 979 376 1056 286 1037 176 c 4
 1018 66 909 -24 794 -24 c 4
 679 -24 602 66 621 176 c 4
778 176 m 4
 773 149 792 127 820 127 c 4
 848 127 875 149 880 176 c 4
 885 203 866 225 838 225 c 4
 810 225 783 203 778 176 c 4
826 700 m 5
 1031 700 l 5
 318 0 l 5
 113 0 l 5
 826 700 l 5
EndSplineSet
EndChar

StartChar: guilsinglleft
Encoding: 8249 8249 144
Width: 350
VWidth: 0
Flags: HMW
LayerCount: 2
Fore
SplineSet
186 230 m 5
 65 255 l 1
 282 520 l 1
 393 440 l 5
 186 230 l 5
65 255 m 1
 186 281 l 1
 317 61 l 1
 188 -10 l 1
 65 255 l 1
EndSplineSet
EndChar

StartChar: uni2031
Encoding: 8241 8241 146
Width: 2021
VWidth: 0
Flags: HMW
LayerCount: 2
Fore
SplineSet
1621 176 m 4
 1640 286 1749 376 1864 376 c 4
 1979 376 2056 286 2037 176 c 4
 2018 66 1909 -24 1794 -24 c 4
 1679 -24 1602 66 1621 176 c 4
1778 176 m 4
 1773 149 1792 127 1820 127 c 4
 1848 127 1875 149 1880 176 c 4
 1885 203 1866 225 1838 225 c 4
 1810 225 1783 203 1778 176 c 4
1121 176 m 0
 1140 286 1249 376 1364 376 c 0
 1479 376 1556 286 1537 176 c 0
 1518 66 1409 -24 1294 -24 c 0
 1179 -24 1102 66 1121 176 c 0
1278 176 m 0
 1273 149 1292 127 1320 127 c 0
 1348 127 1375 149 1380 176 c 0
 1385 203 1366 225 1338 225 c 0
 1310 225 1283 203 1278 176 c 0
108 525 m 0
 127 635 236 725 351 725 c 0
 466 725 543 635 524 525 c 0
 505 415 395 325 280 325 c 0
 165 325 89 415 108 525 c 0
265 525 m 0
 260 498 279 476 307 476 c 0
 335 476 362 498 367 525 c 0
 372 552 352 574 324 574 c 0
 296 574 270 552 265 525 c 0
621 176 m 0
 640 286 749 376 864 376 c 0
 979 376 1056 286 1037 176 c 0
 1018 66 909 -24 794 -24 c 0
 679 -24 602 66 621 176 c 0
778 176 m 0
 773 149 792 127 820 127 c 0
 848 127 875 149 880 176 c 0
 885 203 866 225 838 225 c 0
 810 225 783 203 778 176 c 0
826 700 m 1
 1031 700 l 1
 318 0 l 1
 113 0 l 1
 826 700 l 1
EndSplineSet
EndChar

StartChar: Euro
Encoding: 8364 8364 148
Width: 700
VWidth: 0
Flags: HMW
LayerCount: 2
Fore
SplineSet
267 350 m 0
 242 207 288 150 366 150 c 0
 423 150 479 172 527 212 c 1
 493 16 l 1
 443 -10 390 -25 336 -25 c 0
 132 -25 45 141 82 350 c 0
 119 559 264 726 468 726 c 0
 522 726 571 711 611 685 c 1
 576 488 l 1
 542 528 494 550 437 550 c 0
 359 550 292 493 267 350 c 0
EndSplineSet
Refer: 62 45 S 2.23636 0 0 0.64 -56.1818 129 2
Refer: 62 45 S 2.20909 0 0 0.64 -34.0455 267 2
EndChar

StartChar: fraction
Encoding: 8260 8260 149
Width: 705
VWidth: 0
Flags: HMW
LayerCount: 2
Fore
SplineSet
643 700 m 1
 778 700 l 1
 185 0 l 5
 50 0 l 1
 643 700 l 1
EndSplineSet
EndChar

StartChar: AE
Encoding: 198 198 191
Width: 1110
VWidth: 0
Flags: HMW
LayerCount: 2
Fore
SplineSet
322 115 m 5
 363 290 l 1
 663 290 l 1
 632 115 l 1
 322 115 l 5
543 700 m 1
 735 660 l 1
 245 0 l 1
 20 0 l 1
 543 700 l 1
687 0 m 1
 716 165 l 1
 1069 165 l 1
 1040 0 l 1
 687 0 l 1
789 535 m 1
 543 700 l 1
 1163 700 l 1
 1134 535 l 1
 789 535 l 1
736 280 m 1
 765 440 l 1
 1098 440 l 1
 1069 280 l 1
 736 280 l 1
708 700 m 1
 898 700 l 1
 775 0 l 1
 585 0 l 1
 708 700 l 1
EndSplineSet
EndChar

StartChar: germandbls
Encoding: 223 223 219
Width: 605
VWidth: 0
Flags: HMW
LayerCount: 2
Fore
SplineSet
147 606 m 1
 328 586 l 1
 225 0 l 1
 40 0 l 1
 147 606 l 1
338 405 m 1
 359 520 l 1
 429 520 455 540 461 576 c 0
 467 612 442 625 402 625 c 0
 352 625 331 602 328 586 c 1
 147 606 l 1
 170 735 298 800 433 800 c 0
 598 800 671 715 652 606 c 0
 631 487 513 405 338 405 c 1
316 165 m 1
 396 165 436 209 446 265 c 0
 454 311 438 345 328 345 c 5
 352 480 l 1
 527 480 663 384 635 225 c 0
 607 66 480 -10 285 -10 c 1
 316 165 l 1
EndSplineSet
EndChar

StartChar: ae
Encoding: 230 230 220
Width: 925
VWidth: 0
Flags: HMW
LayerCount: 2
Fore
SplineSet
175 308 m 1
 139 434 l 1
 207 459 296 485 379 485 c 0
 514 485 565 429 548 330 c 1
 395 282 l 1
 401 317 383 343 333 343 c 0
 267 343 199 319 175 308 c 1
241 144 m 0
 237 120 258 111 283 111 c 0
 323 111 367 124 379 190 c 1
 454 130 l 1
 438 41 314 -20 189 -20 c 0
 74 -20 27 41 43 130 c 0
 64 247 180 285 271 285 c 0
 369 285 399 257 419 233 c 1
 405 155 l 1
 381 177 356 188 308 188 c 0
 274 188 246 173 241 144 c 0
387 230 m 1
 395 282 l 1
 610 270 l 1
 593 230 l 1
 387 230 l 1
576 190 m 1
 595 299 l 1
 923 299 l 1
 923 190 l 1
 576 190 l 1
923 190 m 1
 730 250 l 1
 745 336 734 370 684 370 c 0
 634 370 603 336 590 260 c 1
 387 230 l 1
 412 369 555 485 730 485 c 4
 900 485 959 384 933 239 c 0
 932 231 928 209 923 190 c 1
387 230 m 1
 583 230 l 1
 566 134 595 110 643 110 c 0
 690 110 730 125 747 165 c 1
 919 137 l 1
 866 42 759 -20 620 -20 c 0
 435 -20 362 91 387 230 c 1
EndSplineSet
EndChar

StartChar: dotlessi
Encoding: 305 305 227
Width: 316
VWidth: 0
Flags: HMW
LayerCount: 2
Fore
SplineSet
146 460 m 1
 332 460 l 5
 251 0 l 5
 65 0 l 1
 146 460 l 1
EndSplineSet
EndChar

StartChar: kgreenlandic
Encoding: 312 312 228
Width: 660
VWidth: 0
Flags: HMW
LayerCount: 2
Fore
SplineSet
258 270 m 1
 483 270 l 1
 650 0 l 1
 425 0 l 1
 258 270 l 1
482 460 m 1
 711 460 l 1
 483 270 l 1
 254 270 l 1
 482 460 l 1
131 460 m 5
 316 460 l 5
 235 0 l 1
 50 0 l 1
 131 460 l 5
EndSplineSet
EndChar

StartChar: thorn
Encoding: 254 254 243
Width: 640
VWidth: 0
Flags: HMW
LayerCount: 2
Fore
SplineSet
656 230 m 0
 626 61 503 -20 398 -20 c 0
 273 -20 224 81 250 230 c 0
 276 379 362 480 487 480 c 0
 592 480 686 399 656 230 c 0
450 230 m 0
 459 281 427 310 382 310 c 0
 342 310 296 286 286 230 c 0
 276 174 313 150 353 150 c 0
 398 150 441 179 450 230 c 0
383 780 m 5
 206 -220 l 5
 16 -220 l 1
 193 780 l 1
 383 780 l 5
EndSplineSet
EndChar

StartChar: breve
Encoding: 728 728 247
Width: 546
VWidth: 0
Flags: HMW
LayerCount: 2
Fore
SplineSet
255 850 m 1
 381 850 l 5
 377 829 398 820 418 820 c 4
 438 820 461 829 465 850 c 5
 591 850 l 1
 575 761 501 700 396 700 c 0
 291 700 239 761 255 850 c 1
EndSplineSet
EndChar

StartChar: eth
Encoding: 240 240 302
Width: 666
VWidth: 0
Flags: HMW
LayerCount: 2
Fore
SplineSet
331 700 m 1
 552 405 l 1
 343 385 l 1
 112 700 l 1
 331 700 l 1
616 230 m 0
 616 71 483 -25 333 -25 c 0
 183 -25 50 71 50 230 c 0
 50 369 163 473 282 473 c 0
 365.3203125 473 400.96484375 440.188476562 445 412.0078125 c 1
 473.711914062 396.671875 529.24609375 435.376953125 552 405 c 0
 579.610351562 368.139648438 616 296.768554688 616 230 c 0
407 230 m 0
 407 281 376 312 333 312 c 0
 290 312 259 281 259 230 c 0
 259 179 290 150 333 150 c 0
 376 150 407 179 407 230 c 0
EndSplineSet
Refer: 62 45 S 1.98636 0 0 0.478788 80.0682 458.788 2
EndChar

StartChar: OE
Encoding: 338 338 303
Width: 1071
VWidth: 0
Flags: HW
LayerCount: 2
Fore
SplineSet
687 700 m 1
 658 535 l 1
 525 535 l 1
 534 700 l 1
 687 700 l 1
593 165 m 1
 564 0 l 1
 451 0 l 1
 460 165 l 1
 593 165 l 1
525 535 m 1
 395.583007812 535 287.194335938 472.418945312 287.194335938 299.291015625 c 0
 287.194335938 196.8046875 357.31640625 165 460 165 c 1
 451 0 l 1
 220.689453125 0 84.5380859375 129.69921875 84.5380859375 290.547851562 c 0
 84.5380859375 574.1875 281.756835938 700 534 700 c 1
 525 535 l 1
668 0 m 1
 697 165 l 1
 1050 165 l 1
 1021 0 l 1
 668 0 l 1
762 535 m 1
 791 700 l 1
 1144 700 l 1
 1115 535 l 1
 762 535 l 1
718 285 m 1
 745 435 l 1
 1078 435 l 1
 1051 285 l 1
 718 285 l 1
639 700 m 1
 829 700 l 1
 706 0 l 1
 516 0 l 1
 639 700 l 1
EndSplineSet
EndChar

StartChar: oe
Encoding: 339 339 304
Width: 989
VWidth: 0
Flags: HW
LayerCount: 2
Fore
SplineSet
394 485 m 0
 547.322265625 485 591.327148438 387.970703125 591.327148438 247.629882812 c 0
 591.327148438 115.498046875 483.064453125 -25 324 -25 c 0
 170.677734375 -25 66.6728515625 52.029296875 66.6728515625 192.370117188 c 0
 66.6728515625 374.501953125 234.935546875 485 394 485 c 0
269.47265625 203.1484375 m 0
 269.47265625 160.555664062 291 130 341 130 c 0
 407.099609375 130 448.455078125 185.618164062 448.455078125 256.177734375 c 0
 448.455078125 299.122070312 426.263671875 330 376 330 c 0
 309.712890625 330 269.47265625 273.892578125 269.47265625 203.1484375 c 0
640 190 m 5
 659 299 l 5
 987 299 l 5
 987 190 l 5
 640 190 l 5
987 190 m 5
 794 250 l 5
 798.052734375 273.23828125 800.208007812 292.678710938 800.208007812 308.678710938 c 4
 800.208007812 351.891601562 784.489257812 370 748 370 c 4
 700.249023438 370 669.827148438 338.989257812 655.86328125 270 c 5
 655.86328125 270 642.102539062 213.717773438 642.102539062 181.474609375 c 4
 642.102539062 125.51171875 668.411132812 110 707 110 c 4
 754 110 794 125 811 165 c 5
 983 137 l 5
 930 42 823 -20 704 -20 c 4
 522.385742188 -20 496.245117188 94.7109375 496.245117188 228.796875 c 4
 496.245117188 333.669921875 592.024414062 485 759 485 c 4
 927.775390625 485 1001.85546875 407.645507812 1001.85546875 291.140625 c 4
 1001.85546875 252.435546875 997.317382812 229.206054688 987 190 c 5
EndSplineSet
EndChar
